# xmcd
#
# Track frame offsets: 
#        150
#        10396
#        34422
#        51619
#        78539
#        113133
#        132379
#        152930
#        178181
#        195526
#        217763
#        231727
#        258838
#        296677
#        318093
#
# Disc length: 4635 seconds
#
# Revision: 2
# Processed by: cddbd v1.5.2PL0 Copyright (c) Steve Scherf et al.
# Submitted via: ExactAudioCopy v1.0b3
#
DISCID=e012190f
DTITLE=Tedeschi, Susan - Live From Austin Tx
DYEAR=2004
DGENRE=Electric Blues
TTITLE0=You Can Make It If You Try
TTITLE1=The Feeling Music Brings
TTITLE2=Alone
TTITLE3=Wait For Me
TTITLE4=Hampmotized
TTITLE5=Love's In Need Of Love Today
TTITLE6=Don't Think Twice, It's All Right
TTITLE7=Voodoo Woman
TTITLE8=In The Garden
TTITLE9=Gonna Move
TTITLE10=Wrapped In The Arms Of Another
TTITLE11=It Hurt So Bad
TTITLE12=Lost Lover Blues
TTITLE13=I Fell In Love
TTITLE14=Angel From Montgomery
EXTD=
EXTT0=
EXTT1=
EXTT2=
EXTT3=
EXTT4=
EXTT5=
EXTT6=
EXTT7=
EXTT8=
EXTT9=
EXTT10=
EXTT11=
EXTT12=
EXTT13=
EXTT14=
PLAYORDER=
